<?xml version="1.0" encoding="UTF-8" standalone="no"?>
<!-- Created with Inkscape (http://www.inkscape.org/) -->

<svg
   xmlns:dc="http://purl.org/dc/elements/1.1/"
   xmlns:cc="http://creativecommons.org/ns#"
   xmlns:rdf="http://www.w3.org/1999/02/22-rdf-syntax-ns#"
   xmlns:svg="http://www.w3.org/2000/svg"
   xmlns="http://www.w3.org/2000/svg"
   xmlns:sodipodi="http://sodipodi.sourceforge.net/DTD/sodipodi-0.dtd"
   xmlns:inkscape="http://www.inkscape.org/namespaces/inkscape"
   width="64"
   height="64"
   id="svg3755"
   version="1.1"
   inkscape:version="0.48.2 r9819"
   sodipodi:docname="New document 3.2013_12_15_10_08_46.0.svg">
  <defs
     id="defs3757" />
  <sodipodi:namedview
     id="base"
     pagecolor="#ffffff"
     bordercolor="#666666"
     borderopacity="1.0"
     inkscape:pageopacity="0.0"
     inkscape:pageshadow="2"
     inkscape:zoom="5.6"
     inkscape:cx="39.633554"
     inkscape:cy="22.548836"
     inkscape:document-units="px"
     inkscape:current-layer="layer1"
     showgrid="false"
     inkscape:window-width="1087"
     inkscape:window-height="726"
     inkscape:window-x="88"
     inkscape:window-y="116"
     inkscape:window-maximized="0" />
  <metadata
     id="metadata3760">
    <rdf:RDF>
      <cc:Work
         rdf:about="">
        <dc:format>image/svg+xml</dc:format>
        <dc:type
           rdf:resource="http://purl.org/dc/dcmitype/StillImage" />
        <dc:title></dc:title>
      </cc:Work>
    </rdf:RDF>
  </metadata>
  <g
     inkscape:label="Layer 1"
     inkscape:groupmode="layer"
     id="layer1"
     transform="translate(0,-988.36218)">
    <path
       style="fill:#00ff00;fill-opacity:1;stroke:none"
       d="M 32 2 C 28.765683 2 25.668656 2.5216803 22.75 3.46875 L 26.125 13.9375 C 27.975463 13.336263 29.949062 13 32 13 C 34.050938 13 36.024537 13.336263 37.875 13.9375 L 41.25 3.46875 C 38.331344 2.5216803 35.234317 2 32 2 z "
       transform="translate(0,988.36218)"
       id="path2985" />
    <path
       style="fill:none;stroke:#000000;stroke-width:1px;stroke-linecap:butt;stroke-linejoin:miter;stroke-opacity:1"
       d="M 57.889,13.191 32,32 64,32 z"
       id="path3799"
       inkscape:connector-curvature="0"
       transform="translate(0,988.36218)"
       sodipodi:nodetypes="cccc" />
    <path
       style="fill:none;stroke:#000000;stroke-width:1px;stroke-linecap:butt;stroke-linejoin:miter;stroke-opacity:1"
       d="m 6.111,1039.1712 25.889,-18.809 -9.889,30.434 z"
       id="path3799-7"
       inkscape:connector-curvature="0"
       sodipodi:nodetypes="cccc" />
    <path
       style="fill:none;stroke:#000000;stroke-width:1px;stroke-linecap:butt;stroke-linejoin:miter;stroke-opacity:1"
       d="M 7.75 14.375 C 4.1450728 19.32592 2 25.406963 2 32 L 13 32 C 13 27.825482 14.374178 23.978901 16.65625 20.84375 L 7.75 14.375 z "
       transform="translate(0,988.36218)"
       id="path3007" />
    <path
       style="fill:none;stroke:#000000;stroke-width:1px;stroke-linecap:butt;stroke-linejoin:miter;stroke-opacity:1"
       d="M 47.34375 43.15625 C 45.010604 46.361567 41.725767 48.811339 37.875 50.0625 L 41.25 60.53125 C 47.333285 58.557291 52.564042 54.687197 56.25 49.625 L 47.34375 43.15625 z "
       transform="translate(0,988.36218)"
       id="path3799-9" />
    <path
       inkscape:connector-curvature="0"
       style="fill:#00ff00;fill-opacity:1;stroke:none"
       d="m 32,990.36216 c -16.568542,0 -30,13.43144 -30,30.00004 0,16.5685 13.431458,30 30,30 16.568543,0 30.000003,-13.4315 30.000003,-30 0,-16.5686 -13.43146,-30.00004 -30.000003,-30.00004 z m 0,11.00004 c 10.493413,0 19.000003,8.5066 19.000003,19 0,10.4934 -8.50659,19 -19.000003,19 -10.49341,0 -19,-8.5066 -19,-19 0,-10.4934 8.50659,-19 19,-19 z"
       id="path2985-4" />
    <path
       inkscape:connector-curvature="0"
       style="fill:#00ff00;fill-opacity:1;stroke:none"
       d="m 32,990.36213 c -16.568542,0 -30,13.43147 -30,30.00007 0,16.5685 13.431458,30 30,30 16.568543,0 30.000003,-13.4315 30.000003,-30 0,-16.5686 -13.43146,-30.00007 -30.000003,-30.00007 z m 0,11.00007 c 10.493413,0 19.000003,8.5066 19.000003,19 0,10.4934 -8.50659,19 -19.000003,19 -10.49341,0 -19,-8.5066 -19,-19 0,-10.4934 8.50659,-19 19,-19 z"
       id="path2985-4-82" />
  </g>
</svg>
